REM DIRINDEX 1\2,1\3,1\4,1\6,1\5\7,1\5\8
REM DIRNAME folder01,folder02,folder03,folder04,folder05,folder06,folder07,folder08
TITLE ""
FILE "DB4500_5th_6C_53.mp3" MP3
  TRACK 01 AUDIO
    TITLE "2:cjc114_5228"
    INDEX 01 00:00:00
  TRACK 02 AUDIO
    TITLE "0:"
    INDEX 01 00:01:07
  TRACK 03 AUDIO
    TITLE "3:cjc114_5229"
    INDEX 01 00:01:30
  TRACK 04 AUDIO
    TITLE "0:"
    INDEX 01 00:02:36
  TRACK 05 AUDIO
    TITLE "4:cjc114_5230"
    INDEX 01 00:02:53
  TRACK 06 AUDIO
    TITLE "0:"
    INDEX 01 00:06:20
  TRACK 07 AUDIO
    TITLE "2:cjc114_5231"
    INDEX 01 00:06:67
  TRACK 08 AUDIO
    TITLE "0:"
    INDEX 01 00:08:24
  TRACK 09 AUDIO
    TITLE "3:cjc114_5232"
    INDEX 01 00:08:50
  TRACK 10 AUDIO
    TITLE "0:"
    INDEX 01 00:09:69
  TRACK 11 AUDIO
    TITLE "4:cjc114_5233"
    INDEX 01 00:10:18
  TRACK 12 AUDIO
    TITLE "0:"
    INDEX 01 00:15:30
  TRACK 13 AUDIO
    TITLE "2:cjc114_5234"
    INDEX 01 00:15:74
  TRACK 14 AUDIO
    TITLE "0:"
    INDEX 01 00:17:10
  TRACK 15 AUDIO
    TITLE "3:cjc114_5235"
    INDEX 01 00:17:33
  TRACK 16 AUDIO
    TITLE "0:"
    INDEX 01 00:18:37
  TRACK 17 AUDIO
    TITLE "4:cjc114_5236"
    INDEX 01 00:18:56
  TRACK 18 AUDIO
    TITLE "0:"
    INDEX 01 00:22:62
  TRACK 19 AUDIO
    TITLE "2:cjc114_5237"
    INDEX 01 00:23:32
  TRACK 20 AUDIO
    TITLE "0:"
    INDEX 01 00:24:39
  TRACK 21 AUDIO
    TITLE "3:cjc114_5238"
    INDEX 01 00:24:59
  TRACK 22 AUDIO
    TITLE "0:"
    INDEX 01 00:25:58
  TRACK 23 AUDIO
    TITLE "4:cjc114_5239"
    INDEX 01 00:26:05
  TRACK 24 AUDIO
    TITLE "0:"
    INDEX 01 00:30:08
  TRACK 25 AUDIO
    TITLE "2:cjc114_5240"
    INDEX 01 00:30:55
  TRACK 26 AUDIO
    TITLE "0:"
    INDEX 01 00:31:71
  TRACK 27 AUDIO
    TITLE "3:cjc114_5241"
    INDEX 01 00:32:15
  TRACK 28 AUDIO
    TITLE "0:"
    INDEX 01 00:33:34
  TRACK 29 AUDIO
    TITLE "4:cjc114_5242"
    INDEX 01 00:33:56
  TRACK 30 AUDIO
    TITLE "0:"
    INDEX 01 00:37:20
  TRACK 31 AUDIO
    TITLE "2:cjc114_5243"
    INDEX 01 00:37:63
  TRACK 32 AUDIO
    TITLE "0:"
    INDEX 01 00:38:63
  TRACK 33 AUDIO
    TITLE "3:cjc114_5244"
    INDEX 01 00:39:07
  TRACK 34 AUDIO
    TITLE "0:"
    INDEX 01 00:40:03
  TRACK 35 AUDIO
    TITLE "4:cjc114_5245"
    INDEX 01 00:40:24
  TRACK 36 AUDIO
    TITLE "0:"
    INDEX 01 00:44:12
  TRACK 37 AUDIO
    TITLE "2:cjc114_5246"
    INDEX 01 00:44:52
  TRACK 38 AUDIO
    TITLE "0:"
    INDEX 01 00:45:51
  TRACK 39 AUDIO
    TITLE "3:cjc114_5247"
    INDEX 01 00:45:73
  TRACK 40 AUDIO
    TITLE "0:"
    INDEX 01 00:46:68
  TRACK 41 AUDIO
    TITLE "4:cjc114_5248"
    INDEX 01 00:47:15
  TRACK 42 AUDIO
    TITLE "0:"
    INDEX 01 00:50:64
  TRACK 43 AUDIO
    TITLE "2:cjc114_5249"
    INDEX 01 00:51:32
  TRACK 44 AUDIO
    TITLE "0:"
    INDEX 01 00:52:28
  TRACK 45 AUDIO
    TITLE "3:cjc114_5250"
    INDEX 01 00:52:49
  TRACK 46 AUDIO
    TITLE "0:"
    INDEX 01 00:53:68
  TRACK 47 AUDIO
    TITLE "4:cjc114_5251"
    INDEX 01 00:54:15
  TRACK 48 AUDIO
    TITLE "0:"
    INDEX 01 00:57:50
  TRACK 49 AUDIO
    TITLE "2:cjc114_5252"
    INDEX 01 00:58:22
  TRACK 50 AUDIO
    TITLE "0:"
    INDEX 01 00:59:20
  TRACK 51 AUDIO
    TITLE "3:cjc114_5253"
    INDEX 01 00:59:39
  TRACK 52 AUDIO
    TITLE "0:"
    INDEX 01 01:00:72
  TRACK 53 AUDIO
    TITLE "4:cjc114_5254"
    INDEX 01 01:01:17
  TRACK 54 AUDIO
    TITLE "0:"
    INDEX 01 01:05:11
  TRACK 55 AUDIO
    TITLE "2:cjc114_5255"
    INDEX 01 01:05:50
  TRACK 56 AUDIO
    TITLE "0:"
    INDEX 01 01:06:61
  TRACK 57 AUDIO
    TITLE "3:cjc114_5256"
    INDEX 01 01:07:06
  TRACK 58 AUDIO
    TITLE "0:"
    INDEX 01 01:08:27
  TRACK 59 AUDIO
    TITLE "4:cjc114_5257"
    INDEX 01 01:08:48
  TRACK 60 AUDIO
    TITLE "0:"
    INDEX 01 01:12:46
  TRACK 61 AUDIO
    TITLE "2:cjc114_5258"
    INDEX 01 01:13:20
  TRACK 62 AUDIO
    TITLE "0:"
    INDEX 01 01:14:25
  TRACK 63 AUDIO
    TITLE "3:cjc114_5259"
    INDEX 01 01:14:47
  TRACK 64 AUDIO
    TITLE "0:"
    INDEX 01 01:15:66
  TRACK 65 AUDIO
    TITLE "4:cjc114_5260"
    INDEX 01 01:16:09
  TRACK 66 AUDIO
    TITLE "0:"
    INDEX 01 01:18:58
  TRACK 67 AUDIO
    TITLE "2:cjc114_5261"
    INDEX 01 01:19:21
  TRACK 68 AUDIO
    TITLE "0:"
    INDEX 01 01:20:34
  TRACK 69 AUDIO
    TITLE "3:cjc114_5262"
    INDEX 01 01:20:57
  TRACK 70 AUDIO
    TITLE "0:"
    INDEX 01 01:21:70
  TRACK 71 AUDIO
    TITLE "4:cjc114_5263"
    INDEX 01 01:22:15
  TRACK 72 AUDIO
    TITLE "0:"
    INDEX 01 01:25:58
  TRACK 73 AUDIO
    TITLE "2:cjc114_5264"
    INDEX 01 01:26:32
  TRACK 74 AUDIO
    TITLE "0:"
    INDEX 01 01:27:36
  TRACK 75 AUDIO
    TITLE "3:cjc114_5265"
    INDEX 01 01:27:53
  TRACK 76 AUDIO
    TITLE "0:"
    INDEX 01 01:29:13
  TRACK 77 AUDIO
    TITLE "4:cjc114_5266"
    INDEX 01 01:29:37
  TRACK 78 AUDIO
    TITLE "0:"
    INDEX 01 01:32:57
  TRACK 79 AUDIO
    TITLE "2:cjc114_5267"
    INDEX 01 01:33:29
  TRACK 80 AUDIO
    TITLE "0:"
    INDEX 01 01:34:57
  TRACK 81 AUDIO
    TITLE "3:cjc114_5268"
    INDEX 01 01:35:02
  TRACK 82 AUDIO
    TITLE "0:"
    INDEX 01 01:36:29
  TRACK 83 AUDIO
    TITLE "4:cjc114_5269"
    INDEX 01 01:36:45
  TRACK 84 AUDIO
    TITLE "0:"
    INDEX 01 01:41:05
  TRACK 85 AUDIO
    TITLE "2:cjc114_5270"
    INDEX 01 01:41:50
  TRACK 86 AUDIO
    TITLE "0:"
    INDEX 01 01:42:67
  TRACK 87 AUDIO
    TITLE "3:cjc114_5271"
    INDEX 01 01:43:13
  TRACK 88 AUDIO
    TITLE "0:"
    INDEX 01 01:44:36
  TRACK 89 AUDIO
    TITLE "4:cjc114_5272"
    INDEX 01 01:44:60
  TRACK 90 AUDIO
    TITLE "0:"
    INDEX 01 01:48:14
